<svg aria-hidden="true" style="width:0;height:0;position:absolute;overflow:hidden" xmlns="http://www.w3.org/2000/svg"><defs><symbol id="logo" viewBox="0 0 32 32"><path d="M27 6H11c-2.75 0-5 2.25-5 5v16c0 2.75 2.25 5 5 5h16c2.75 0 5-2.25 5-5V11c0-2.75-2.25-5-5-5zM13 28a3 3 0 1 1 0-6 3 3 0 0 1 0 6zm0-12a3 3 0 1 1 0-6 3 3 0 0 1 0 6zm6 6a3 3 0 1 1 0-6 3 3 0 0 1 0 6zm6 6a3 3 0 1 1 0-6 3 3 0 0 1 0 6zm0-12a3 3 0 1 1 0-6 3 3 0 0 1 0 6zm.899-12C25.432 1.725 23.408 0 21 0H5C2.25 0 0 2.25 0 5v16c0 2.408 1.725 4.432 4 4.899V6c0-1.1.9-2 2-2h19.899z"/></symbol><symbol id="menu" viewBox="0 0 24 24"><path d="M3 13h18a1 1 0 0 0 0-2H3a1 1 0 0 0 0 2zm0-6h18a1 1 0 0 0 0-2H3a1 1 0 0 0 0 2zm0 12h18a1 1 0 0 0 0-2H3a1 1 0 0 0 0 2z"/></symbol><symbol id="close" viewBox="0 0 24 24"><path d="M18.984 6.422 13.406 12l5.578 5.578-1.406 1.406L12 13.406l-5.578 5.578-1.406-1.406L10.594 12 5.016 6.422l1.406-1.406L12 10.594l5.578-5.578z"/></symbol><symbol id="minus" viewBox="0 0 24 24"><path d="M5 13h14a1 1 0 0 0 0-2H5a1 1 0 0 0 0 2z"/></symbol><symbol id="plus" viewBox="0 0 24 24"><path d="M5 13h6v6a1 1 0 0 0 2 0v-6h6a1 1 0 0 0 0-2h-6V5a1 1 0 0 0-2 0v6H5a1 1 0 0 0 0 2z"/></symbol><symbol id="arrow-up" viewBox="0 0 20 20"><path d="M15.484 12.452c-.436.446-1.043.481-1.576 0L10 8.705l-3.908 3.747c-.533.481-1.141.446-1.574 0-.436-.445-.408-1.197 0-1.615.406-.418 4.695-4.502 4.695-4.502a1.095 1.095 0 0 1 1.576 0s4.287 4.084 4.695 4.502.436 1.17 0 1.615z"/></symbol><symbol id="arrow-down" viewBox="0 0 20 20"><path d="M4.516 7.548c.436-.446 1.043-.481 1.576 0L10 11.295l3.908-3.747c.533-.481 1.141-.446 1.574 0 .436.445.408 1.197 0 1.615-.406.418-4.695 4.502-4.695 4.502a1.095 1.095 0 0 1-1.576 0S4.924 9.581 4.516 9.163s-.436-1.17 0-1.615z"/></symbol><symbol id="cheveron-up" viewBox="0 0 20 20"><path d="M10.707 7.05 10 6.343 4.343 12l1.414 1.414L10 9.172l4.243 4.242L15.657 12z"/></symbol><symbol id="cheveron-down" viewBox="0 0 20 20"><path d="m9.293 12.95.707.707L15.657 8l-1.414-1.414L10 10.828 5.757 6.586 4.343 8z"/></symbol></defs></svg>