<svg aria-hidden="true" style="width:0;height:0;position:absolute;overflow:hidden" xmlns="http://www.w3.org/2000/svg"><defs><symbol id="logo" viewBox="0 0 32 32"><path d="M27 6H11c-2.75 0-5 2.25-5 5v16c0 2.75 2.25 5 5 5h16c2.75 0 5-2.25 5-5V11c0-2.75-2.25-5-5-5zM13 28a3 3 0 1 1 0-6 3 3 0 0 1 0 6zm0-12a3 3 0 1 1 0-6 3 3 0 0 1 0 6zm6 6a3 3 0 1 1 0-6 3 3 0 0 1 0 6zm6 6a3 3 0 1 1 0-6 3 3 0 0 1 0 6zm0-12a3 3 0 1 1 0-6 3 3 0 0 1 0 6zm.899-12C25.432 1.725 23.408 0 21 0H5C2.25 0 0 2.25 0 5v16c0 2.408 1.725 4.432 4 4.899V6c0-1.1.9-2 2-2h19.899z"/></symbol><symbol id="menu" viewBox="0 0 24 24"><path d="M3 13h18a1 1 0 0 0 0-2H3a1 1 0 0 0 0 2zm0-6h18a1 1 0 0 0 0-2H3a1 1 0 0 0 0 2zm0 12h18a1 1 0 0 0 0-2H3a1 1 0 0 0 0 2z"/></symbol><symbol id="close" viewBox="0 0 24 24"><path d="M18.984 6.422 13.406 12l5.578 5.578-1.406 1.406L12 13.406l-5.578 5.578-1.406-1.406L10.594 12 5.016 6.422l1.406-1.406L12 10.594l5.578-5.578z"/></symbol><symbol id="minus" viewBox="0 0 24 24"><path d="M5 13h14a1 1 0 0 0 0-2H5a1 1 0 0 0 0 2z"/></symbol><symbol id="plus" viewBox="0 0 24 24"><path d="M5 13h6v6a1 1 0 0 0 2 0v-6h6a1 1 0 0 0 0-2h-6V5a1 1 0 0 0-2 0v6H5a1 1 0 0 0 0 2z"/></symbol><symbol id="arrow-up" viewBox="0 0 20 20"><path d="M15.484 12.452c-.436.446-1.043.481-1.576 0L10 8.705l-3.908 3.747c-.533.481-1.141.446-1.574 0-.436-.445-.408-1.197 0-1.615.406-.418 4.695-4.502 4.695-4.502a1.095 1.095 0 0 1 1.576 0s4.287 4.084 4.695 4.502.436 1.17 0 1.615z"/></symbol><symbol id="arrow-down" viewBox="0 0 20 20"><path d="M4.516 7.548c.436-.446 1.043-.481 1.576 0L10 11.295l3.908-3.747c.533-.481 1.141-.446 1.574 0 .436.445.408 1.197 0 1.615-.406.418-4.695 4.502-4.695 4.502a1.095 1.095 0 0 1-1.576 0S4.924 9.581 4.516 9.163s-.436-1.17 0-1.615z"/></symbol><symbol id="cheveron-up" viewBox="0 0 20 20"><path d="M10.707 7.05 10 6.343 4.343 12l1.414 1.414L10 9.172l4.243 4.242L15.657 12z"/></symbol><symbol id="cheveron-down" viewBox="0 0 20 20"><path d="m9.293 12.95.707.707L15.657 8l-1.414-1.414L10 10.828 5.757 6.586 4.343 8z"/></symbol><symbol id="github" viewBox="0 0 32 32"><path d="M16 .395c-8.836 0-16 7.163-16 16 0 7.069 4.585 13.067 10.942 15.182.8.148 1.094-.347 1.094-.77 0-.381-.015-1.642-.022-2.979-4.452.968-5.391-1.888-5.391-1.888-.728-1.849-1.776-2.341-1.776-2.341-1.452-.993.11-.973.11-.973 1.606.113 2.452 1.649 2.452 1.649 1.427 2.446 3.743 1.739 4.656 1.33.143-1.034.558-1.74 1.016-2.14-3.554-.404-7.29-1.777-7.29-7.907 0-1.747.625-3.174 1.649-4.295-.166-.403-.714-2.03.155-4.234 0 0 1.344-.43 4.401 1.64a15.353 15.353 0 0 1 4.005-.539c1.359.006 2.729.184 4.008.539 3.054-2.07 4.395-1.64 4.395-1.64.871 2.204.323 3.831.157 4.234 1.026 1.12 1.647 2.548 1.647 4.295 0 6.145-3.743 7.498-7.306 7.895.574.497 1.085 1.47 1.085 2.963 0 2.141-.019 3.864-.019 4.391 0 .426.288.925 1.099.768C27.421 29.457 32 23.462 32 16.395c0-8.837-7.164-16-16-16z"/></symbol><symbol id="linkedin" viewBox="0 0 32 32"><path d="M31.992 32H32V20.262c0-5.741-1.235-10.163-7.947-10.163-3.227 0-5.392 1.77-6.277 3.45h-.093v-2.914h-6.365v21.363h6.627V21.42c0-2.786.528-5.48 3.978-5.48 3.398 0 3.45 3.179 3.45 5.658V32h6.619zM.528 10.635h6.635V32H.528V10.635zM3.843 0A3.843 3.843 0 0 0 0 3.843c0 2.12 1.722 3.878 3.843 3.878 2.12 0 3.842-1.757 3.842-3.878S5.965.002 3.844 0z"/></symbol><symbol id="telegram" viewBox="0 0 32 32"><path d="M29.528 4.193c-.48-.407-1.234-.465-2.013-.152h-.001c-.82.329-23.207 9.932-24.118 10.324-.166.058-1.613.598-1.464 1.801.133 1.085 1.297 1.534 1.439 1.586l5.692 1.949c.378 1.257 1.77 5.894 2.077 6.885.192.618.505 1.429 1.053 1.596.481.186.96.016 1.27-.227l3.48-3.228 5.617 4.381.134.08c.381.169.747.253 1.096.253.269 0 .528-.051.775-.152.842-.346 1.178-1.148 1.213-1.238l4.196-21.809c.256-1.165-.1-1.757-.444-2.049zM14.08 20.48l-1.92 5.12-1.92-6.4L24.96 8.32 14.08 20.48z"/></symbol><symbol id="mail" viewBox="0 0 32 32"><path d="M29 4H3a3 3 0 0 0-3 3v18a3 3 0 0 0 3 3h26a3 3 0 0 0 3-3V7a3 3 0 0 0-3-3zM2.741 25.99l-.731-.732 8.249-8.248.731.732-8.249 8.248zm26.518 0-8.249-8.248.731-.732 8.249 8.248-.731.732zM17 19.325V20h-2v-.675L2.003 7.275l1.272-1.272L16 17.801 28.725 6.003l1.272 1.272L17 19.325z"/></symbol></defs></svg>