<svg version="1.0" xmlns="http://www.w3.org/2000/svg" width="346.667" height="346.667" viewBox="0 0 260 260"><path d="M30.5 1.5C16.8 5.2 5.7 16.1 1.6 29.9.2 34.6 0 44 .1 105.4c.1 76 .1 76.1 5.6 85.5 3.9 6.7 10.6 12.9 17.6 16.2 3.4 1.6 6.9 2.9 7.7 2.9 1.3 0 1.5-9.7 1.5-82.1 0-76.7.1-82.3 1.8-85.7 2.3-4.9 4.6-7.1 8.9-8.5 2.5-.9 24.4-1.2 85.1-1.2 72.1 0 81.7-.2 81.7-1.5 0-3.5-6.1-14.1-10.8-18.7-4.6-4.6-12.6-9.4-18.4-11.1-1.3-.3-34.5-.7-73.8-.9C49.4.2 34.5.4 30.5 1.5z"/><path d="M89.5 49c-12.8.8-21.5 4.4-28.9 12.3-5.4 5.7-10.4 15.2-11.2 21.3-.3 2.1-.5 34.9-.6 72.9 0 51.2.3 70.2 1.2 73.5 3.7 13.5 13.1 23.6 27.1 29 5 1.8 8 1.9 76.4 1.9 61.8.1 72-.2 76.6-1.5 14.2-4.1 26-16.8 28.9-31 1.6-7.4.9-147.1-.6-149.9-.7-1.1-2.2-4.1-3.4-6.7-5.7-11.9-19.3-20.9-32.5-21.7-9.6-.5-123.1-.6-133-.1zm26.9 35.1c14.3 7.4 17.6 25.2 7.1 37.7-7.8 9.2-22.8 10.5-33 2.7-4.1-3.1-8.7-11.7-9-17.1-1.2-18.5 18.7-31.7 34.9-23.3zm96.4-.6c2.3.9 6 3.8 8.2 6.3 11.6 13.1 6 33.5-10.6 38.7-20.9 6.6-38.6-15.4-28.2-35 2.2-4.1 5.8-7.3 11.3-10 5.6-2.7 12.8-2.7 19.3 0zm-48.3 48.8c18.5 9.8 18.5 35.5-.1 43.9-13.3 5.9-28-.5-33-14.4-4-11.3 2.2-24.6 13.7-29.7 5.3-2.3 14.9-2.2 19.4.2zM115 181.1c9.5 4.3 14.4 11.7 14.4 21.9.1 10.2-5.1 18.2-14.3 22.3-14.8 6.6-32.6-4.3-33.6-20.6-1.1-17.8 17.5-30.9 33.5-23.6zm96.5-.7c6 2.5 10.3 6.6 13 12.1 10.1 20.5-10.5 41.7-31.4 32.4-15.3-6.7-18.8-27.8-6.6-39.1 6.8-6.2 17.4-8.5 25-5.4z"/></svg>