<?xml version="1.0" standalone="no"?>
<!DOCTYPE svg PUBLIC "-//W3C//DTD SVG 20010904//EN"
 "http://www.w3.org/TR/2001/REC-SVG-20010904/DTD/svg10.dtd">
<svg version="1.0" xmlns="http://www.w3.org/2000/svg"
 width="260.000000pt" height="260.000000pt" viewBox="0 0 260.000000 260.000000"
 preserveAspectRatio="xMidYMid meet">
<metadata>
Created by potrace 1.14, written by Peter Selinger 2001-2017
</metadata>
<g transform="translate(0.000000,260.000000) scale(0.100000,-0.100000)"
fill="#000000" stroke="none">
<path d="M305 2585 c-137 -37 -248 -146 -289 -284 -14 -47 -16 -141 -15 -755
1 -760 1 -761 56 -855 39 -67 106 -129 176 -162 34 -16 69 -29 77 -29 13 0 15
97 15 821 0 767 1 823 18 857 23 49 46 71 89 85 25 9 244 12 851 12 721 0 817
2 817 15 0 35 -61 141 -108 187 -46 46 -126 94 -184 111 -13 3 -345 7 -738 9
-576 1 -725 -1 -765 -12z"/>
<path d="M895 2110 c-128 -8 -215 -44 -289 -123 -54 -57 -104 -152 -112 -213
-3 -21 -5 -349 -6 -729 0 -512 3 -702 12 -735 37 -135 131 -236 271 -290 50
-18 80 -19 764 -19 618 -1 720 2 766 15 142 41 260 168 289 310 16 74 9 1471
-6 1499 -7 11 -22 41 -34 67 -57 119 -193 209 -325 217 -96 5 -1231 6 -1330 1z
m269 -351 c143 -74 176 -252 71 -377 -78 -92 -228 -105 -330 -27 -41 31 -87
117 -90 171 -12 185 187 317 349 233z m964 6 c23 -9 60 -38 82 -63 116 -131
60 -335 -106 -387 -209 -66 -386 154 -282 350 22 41 58 73 113 100 56 27 128
27 193 0z m-483 -488 c185 -98 185 -355 -1 -439 -133 -59 -280 5 -330 144 -40
113 22 246 137 297 53 23 149 22 194 -2z m-495 -488 c95 -43 144 -117 144
-219 1 -102 -51 -182 -143 -223 -148 -66 -326 43 -336 206 -11 178 175 309
335 236z m965 7 c60 -25 103 -66 130 -121 101 -205 -105 -417 -314 -324 -153
67 -188 278 -66 391 68 62 174 85 250 54z"/>
</g>
</svg>
